<?xml version="1.0" standalone="no"?>
<!DOCTYPE svg PUBLIC "-//W3C//DTD SVG 20010904//EN"
 "http://www.w3.org/TR/2001/REC-SVG-20010904/DTD/svg10.dtd">
<svg version="1.0" xmlns="http://www.w3.org/2000/svg"
 width="512.000000pt" height="512.000000pt" viewBox="0 0 512.000000 512.000000"
 preserveAspectRatio="xMidYMid meet">

<g transform="translate(0.000000,512.000000) scale(0.100000,-0.100000)"
fill="#000000" stroke="none">
<path d="M2481 5106 c-51 -18 -111 -74 -133 -123 -24 -55 -25 -135 -3 -191 17
-43 96 -122 121 -122 11 0 14 -34 14 -175 0 -201 13 -179 -117 -190 l-71 -6
-12 58 c-20 102 -29 129 -49 147 -28 26 -79 17 -104 -16 -21 -28 -21 -29 -3
-119 9 -50 15 -94 12 -97 -3 -3 -45 -18 -92 -33 l-86 -27 -22 51 c-13 29 -42
100 -66 158 l-43 106 31 42 c113 156 4 371 -188 371 -133 0 -230 -101 -230
-238 0 -112 75 -200 190 -224 l59 -12 65 -155 64 -155 -80 -43 c-45 -24 -86
-42 -91 -40 -5 1 -33 36 -61 77 -46 68 -55 75 -88 78 -27 2 -43 -3 -57 -17
-33 -33 -26 -71 29 -156 l51 -77 -23 -18 c-13 -9 -45 -36 -73 -59 -27 -22 -52
-41 -55 -41 -3 0 -59 53 -124 119 l-118 119 12 37 c44 133 -55 285 -197 301
-148 18 -279 -116 -259 -264 19 -138 170 -235 301 -192 l37 12 119 -118 c66
-65 119 -121 119 -124 0 -3 -19 -28 -41 -55 -23 -28 -50 -60 -59 -73 l-18 -23
-77 51 c-85 55 -123 62 -156 29 -14 -14 -19 -30 -17 -57 3 -33 10 -42 78 -88
41 -28 76 -56 77 -61 2 -5 -16 -46 -40 -91 l-43 -80 -155 64 -155 65 -12 59
c-25 118 -112 190 -229 190 -135 0 -232 -96 -233 -231 0 -152 143 -263 290
-225 27 7 65 25 86 41 l37 28 106 -43 c58 -24 129 -53 158 -66 l51 -22 -27
-86 c-15 -47 -30 -89 -33 -92 -3 -3 -47 3 -97 12 -90 18 -91 18 -119 -3 -33
-25 -42 -76 -16 -104 18 -20 45 -29 147 -49 l58 -12 -6 -66 c-3 -37 -8 -82
-11 -99 l-5 -33 -170 0 -169 0 -10 24 c-5 13 -24 41 -42 62 -90 102 -256 101
-346 -2 -82 -93 -82 -215 0 -308 64 -74 172 -98 266 -61 43 17 122 96 122 121
0 11 34 14 175 14 201 0 179 13 190 -117 l6 -71 -58 -12 c-102 -20 -129 -29
-147 -49 -26 -28 -17 -79 16 -104 28 -21 29 -21 119 -3 50 9 94 15 97 12 3 -3
18 -45 33 -92 l27 -86 -51 -22 c-29 -13 -100 -42 -158 -66 l-106 -43 -42 31
c-23 17 -64 35 -90 41 -145 31 -281 -80 -281 -228 1 -135 98 -230 236 -231
114 0 202 73 226 190 l12 59 155 65 155 64 43 -80 c24 -45 42 -86 40 -91 -1
-5 -36 -33 -77 -61 -68 -46 -75 -55 -78 -88 -2 -27 3 -43 17 -57 34 -34 74
-27 157 30 l75 50 18 -23 c10 -13 37 -45 60 -73 22 -27 41 -52 41 -55 0 -3
-53 -59 -119 -124 l-119 -118 -37 12 c-131 43 -282 -54 -301 -192 -20 -148
111 -282 259 -264 142 16 241 168 197 301 l-12 37 118 119 c65 66 121 119 124
119 3 0 28 -19 55 -41 28 -23 60 -50 73 -59 l23 -18 -51 -77 c-53 -82 -60
-116 -34 -153 13 -19 24 -22 57 -20 40 3 45 7 93 78 28 41 56 76 61 77 5 2 46
-16 91 -40 l80 -43 -64 -155 -65 -155 -59 -12 c-115 -24 -190 -112 -190 -224
0 -137 97 -238 230 -238 192 0 301 215 188 371 l-31 42 43 106 c24 58 53 129
66 158 l22 51 86 -27 c47 -15 89 -30 92 -33 3 -3 -3 -47 -12 -97 -18 -90 -18
-91 3 -119 25 -33 76 -42 104 -16 20 18 29 45 49 147 l12 58 71 -6 c130 -11
117 11 117 -190 0 -141 -3 -175 -14 -175 -25 0 -104 -79 -121 -122 -33 -84
-15 -190 43 -252 38 -40 118 -76 172 -76 54 0 134 36 172 76 58 62 76 168 43
252 -17 43 -96 122 -121 122 -11 0 -14 34 -14 175 0 201 -13 179 117 190 l71
6 12 -58 c20 -102 29 -129 49 -147 28 -26 79 -17 104 16 21 28 21 29 3 119 -9
50 -15 94 -12 97 3 3 45 18 92 33 l86 27 22 -51 c13 -29 42 -100 66 -158 l43
-106 -31 -42 c-113 -156 -4 -371 188 -371 133 0 230 101 230 238 0 112 -75
200 -190 224 l-59 12 -65 155 -64 155 80 43 c45 24 86 42 91 40 5 -1 33 -36
61 -77 48 -71 53 -75 93 -78 33 -2 44 1 57 20 26 37 19 71 -34 153 l-51 77 23
18 c13 9 45 36 73 59 27 22 52 41 55 41 3 0 59 -53 124 -119 l118 -119 -12
-37 c-31 -94 14 -214 101 -267 208 -129 450 113 321 321 -53 87 -173 132 -267
101 l-37 -12 -119 118 c-66 65 -119 121 -119 124 0 3 19 28 41 55 23 28 50 60
60 73 l18 23 75 -50 c83 -57 123 -64 157 -30 14 14 19 30 17 57 -3 33 -10 42
-78 88 -41 28 -76 56 -77 61 -2 5 16 46 40 91 l43 80 155 -64 155 -65 12 -59
c24 -117 112 -190 226 -190 137 1 236 99 236 232 -1 191 -215 299 -371 186
l-42 -31 -106 43 c-58 24 -129 53 -158 66 l-51 22 27 86 c15 47 30 89 33 92 3
3 47 -3 97 -12 90 -18 91 -18 119 3 33 25 42 76 16 104 -18 20 -45 29 -147 49
l-58 12 6 71 c11 130 -11 117 190 117 141 0 175 -3 175 -14 0 -25 79 -104 122
-121 84 -33 190 -15 252 43 40 38 76 118 76 172 0 54 -36 134 -76 172 -64 60
-173 77 -256 40 -45 -20 -103 -77 -118 -118 l-10 -24 -169 0 -170 0 -5 33 c-3
17 -8 62 -11 99 l-6 66 58 12 c102 20 129 29 147 49 26 28 17 79 -16 104 -28
21 -29 21 -119 3 -50 -9 -94 -15 -97 -12 -3 3 -18 45 -33 92 l-27 86 51 22
c29 13 100 42 158 66 l106 43 42 -31 c156 -113 371 -4 371 188 0 133 -98 230
-233 230 -117 0 -204 -72 -229 -190 l-12 -59 -155 -65 -155 -64 -43 80 c-24
45 -42 86 -40 91 1 5 36 33 77 61 68 46 75 55 78 88 2 27 -3 43 -17 57 -33 33
-71 26 -156 -30 -42 -27 -78 -49 -79 -47 -1 2 -28 36 -61 76 l-58 73 120 121
120 120 38 -12 c94 -31 214 14 267 101 129 208 -113 450 -321 321 -87 -53
-132 -173 -101 -267 l12 -38 -120 -120 -121 -120 -73 58 c-40 33 -74 60 -76
61 -2 1 20 37 47 79 56 85 63 123 30 156 -14 14 -30 19 -57 17 -35 -3 -41 -10
-119 -122 -83 -120 -96 -154 -70 -186 7 -8 47 -41 91 -74 619 -461 821 -1311
475 -1999 -162 -322 -404 -564 -727 -726 -444 -224 -980 -224 -1423 -1 -323
162 -569 408 -729 728 -223 445 -223 979 1 1425 159 319 407 567 726 726 258
129 562 188 840 163 163 -15 247 -33 401 -85 115 -38 126 -40 150 -26 21 12
43 55 110 215 l83 200 59 12 c115 24 190 112 190 224 0 138 -97 237 -231 238
-148 0 -259 -136 -228 -281 6 -26 24 -67 41 -90 l31 -42 -43 -106 c-24 -58
-53 -129 -66 -158 l-22 -51 -86 27 c-47 15 -89 30 -92 33 -3 3 3 47 12 97 18
90 18 91 -3 119 -25 33 -76 42 -104 16 -20 -18 -29 -45 -49 -147 l-12 -58 -71
6 c-130 11 -117 -11 -117 190 0 141 3 175 14 175 25 0 104 79 121 122 37 94
13 202 -61 266 -66 59 -154 77 -233 48z m126 -151 c32 -22 43 -65 28 -102 -24
-56 -85 -70 -129 -30 -38 34 -39 85 -1 122 28 28 70 32 102 10z m-880 -187
c30 -34 34 -55 19 -92 -18 -44 -64 -63 -106 -46 -37 15 -50 37 -50 81 0 71 90
108 137 57z m1780 0 c25 -23 31 -74 13 -107 -16 -31 -65 -46 -101 -30 -35 14
-63 66 -52 96 22 62 95 84 140 41z m-2554 -490 c78 -41 52 -159 -35 -158 -37
1 -59 14 -76 47 -19 35 -14 63 17 94 31 31 59 36 94 17z m3308 -17 c31 -31 36
-59 17 -94 -41 -78 -159 -52 -158 35 1 80 85 115 141 59z m-3802 -741 c31 -16
46 -65 30 -101 -14 -35 -66 -63 -96 -52 -62 22 -84 95 -41 140 23 25 74 31
107 13z m4308 -12 c45 -42 23 -119 -39 -141 -50 -18 -117 47 -104 99 16 63 96
86 143 42z m-4467 -896 c57 -71 -20 -165 -102 -124 -62 32 -63 112 -1 143 41
20 78 14 103 -19z m4655 -5 c59 -84 -64 -177 -132 -101 -28 31 -29 73 -3 107
33 42 104 39 135 -6z m-4511 -861 c44 -18 63 -64 46 -106 -35 -84 -160 -60
-160 30 0 42 29 76 78 89 1 1 17 -5 36 -13z m4324 -19 c50 -46 14 -137 -55
-137 -46 0 -68 13 -83 50 -17 41 2 88 44 106 36 15 62 10 94 -19z m-3793 -752
c47 -46 24 -125 -42 -141 -53 -14 -113 46 -99 99 16 66 95 89 141 42z m3283 5
c46 -43 37 -107 -19 -139 -51 -29 -119 14 -119 76 0 70 87 110 138 63z m-2549
-495 c31 -15 54 -65 44 -93 -32 -92 -163 -78 -163 18 0 39 13 61 45 78 27 15
41 15 74 -3z m1780 0 c32 -16 41 -33 41 -78 0 -93 -131 -105 -163 -15 -10 27
13 77 42 93 33 18 46 18 80 0z m-874 -187 c47 -41 28 -129 -30 -144 -59 -15
-109 27 -107 89 1 40 41 77 82 77 16 0 41 -10 55 -22z"/>
<path d="M2504 3991 c-70 -18 -138 -78 -164 -146 -6 -17 -11 -56 -11 -87 0
-66 23 -117 73 -165 144 -139 388 -35 389 165 1 65 -12 103 -47 149 -50 66
-160 104 -240 84z m95 -156 c74 -38 46 -155 -38 -155 -88 0 -114 116 -36 158
27 15 41 15 74 -3z"/>
<path d="M2080 3743 c-33 -12 -50 -37 -50 -73 0 -46 25 -70 72 -70 44 0 68 25
68 72 0 48 -48 86 -90 71z"/>
<path d="M3000 3743 c-33 -12 -50 -37 -50 -73 0 -46 25 -70 72 -70 43 0 69 26
70 70 2 47 -50 88 -92 73z"/>
<path d="M1661 3639 c-200 -37 -251 -312 -79 -426 35 -23 54 -28 117 -31 69
-3 81 0 128 28 162 94 149 346 -22 415 -44 18 -94 23 -144 14z m107 -172 c15
-14 22 -32 22 -56 0 -97 -130 -112 -163 -19 -11 31 13 79 47 94 36 15 62 10
94 -19z"/>
<path d="M3247 3580 c-42 -33 -67 -98 -67 -171 0 -133 96 -229 229 -229 101 0
174 42 187 107 5 26 1 37 -19 57 -31 31 -72 33 -107 6 -35 -27 -91 -26 -118 3
-28 29 -28 83 -2 117 27 34 25 76 -5 105 -29 30 -64 32 -98 5z"/>
<path d="M2497 3266 c-193 -53 -231 -315 -62 -421 43 -27 57 -30 125 -30 68 0
82 3 125 30 151 94 140 329 -18 403 -58 28 -113 33 -170 18z m94 -146 c22 0
49 -42 49 -77 0 -49 -32 -83 -79 -83 -63 0 -99 61 -75 125 8 20 63 46 82 40 8
-3 18 -5 23 -5z"/>
<path d="M2055 3110 c-49 -19 -64 -82 -30 -120 24 -26 79 -26 105 0 53 53 -6
148 -75 120z"/>
<path d="M3020 3113 c-33 -12 -50 -37 -50 -74 0 -94 139 -94 142 1 2 47 -50
88 -92 73z"/>
<path d="M1395 3070 c-43 -48 -10 -120 55 -120 23 0 43 7 53 18 23 25 22 85
-1 105 -26 24 -85 22 -107 -3z"/>
<path d="M3617 3072 c-23 -25 -22 -85 1 -105 26 -24 85 -22 107 3 43 48 10
120 -55 120 -23 0 -43 -7 -53 -18z"/>
<path d="M1310 2788 c-59 -10 -118 -52 -154 -112 -26 -41 -30 -58 -30 -115 0
-55 5 -76 27 -114 48 -81 114 -119 209 -118 200 1 304 245 165 389 -59 62
-131 85 -217 70z m108 -171 c15 -14 22 -32 22 -57 0 -91 -125 -115 -160 -30
-17 41 2 88 43 105 36 15 64 9 95 -18z"/>
<path d="M2031 2789 c-166 -31 -241 -235 -137 -371 97 -128 296 -119 381 17
27 43 30 57 30 125 0 68 -3 82 -30 125 -50 80 -147 122 -244 104z m106 -171
c51 -48 15 -138 -54 -138 -46 0 -69 14 -82 50 -12 35 0 77 26 98 27 20 84 15
110 -10z"/>
<path d="M2999 2790 c-63 -11 -126 -56 -159 -113 -65 -114 -27 -256 88 -320
176 -98 383 56 341 253 -26 121 -148 202 -270 180z m91 -160 c27 -14 41 -64
28 -100 -29 -83 -158 -60 -158 29 0 65 70 103 130 71z"/>
<path d="M3725 2790 c-183 -28 -260 -255 -132 -388 48 -50 99 -73 165 -73 95
-1 161 37 209 118 22 38 27 59 27 114 0 57 -4 74 -30 115 -53 86 -142 128
-239 114z m112 -196 c14 -27 14 -37 3 -64 -35 -85 -160 -62 -160 30 0 89 119
115 157 34z"/>
<path d="M2440 2278 c-179 -110 -135 -383 70 -427 197 -42 351 166 252 342
-42 76 -113 117 -202 117 -57 0 -73 -5 -120 -32z m177 -140 c25 -23 31 -74 13
-108 -14 -27 -64 -41 -100 -28 -36 12 -50 35 -50 79 0 70 85 106 137 57z"/>
<path d="M1395 2150 c-25 -27 -23 -76 3 -102 25 -26 76 -27 103 -2 25 23 26
85 1 107 -26 24 -85 22 -107 -3z"/>
<path d="M3616 2148 c-38 -53 -8 -118 54 -120 62 -2 97 75 55 122 -26 29 -89
27 -109 -2z"/>
<path d="M2025 2130 c-25 -27 -23 -76 3 -102 26 -26 75 -28 102 -3 26 24 26
79 0 105 -26 26 -81 26 -105 0z"/>
<path d="M2992 2134 c-29 -20 -31 -83 -2 -109 47 -42 124 -7 122 55 -2 62 -67
92 -120 54z"/>
<path d="M3293 1910 c-38 -22 -61 -45 -83 -83 -28 -47 -31 -59 -28 -128 3 -63
8 -82 31 -117 52 -80 147 -119 244 -101 203 38 255 312 81 426 -35 23 -54 28
-117 31 -69 3 -81 0 -128 -28z m174 -142 c30 -34 34 -55 19 -92 -34 -82 -156
-56 -156 33 0 73 89 111 137 59z"/>
<path d="M1563 1890 c-56 -23 -98 -139 -82 -227 30 -161 223 -239 362 -147 60
39 72 89 32 129 -29 30 -67 32 -103 7 -41 -28 -59 -32 -93 -20 -21 7 -36 22
-45 44 -15 35 -11 54 18 96 25 36 23 74 -7 103 -25 26 -45 30 -82 15z"/>
<path d="M2470 1574 c-45 -20 -97 -69 -121 -117 -23 -44 -27 -135 -9 -182 50
-131 214 -191 333 -122 81 48 119 114 118 209 0 91 -58 177 -143 212 -47 20
-132 20 -178 0z m147 -156 c25 -23 31 -74 13 -107 -16 -31 -65 -46 -100 -31
-37 15 -50 37 -50 81 0 70 85 106 137 57z"/>
<path d="M2052 1504 c-29 -20 -31 -83 -2 -109 48 -43 120 -10 120 55 0 44 -24
70 -66 70 -16 0 -40 -7 -52 -16z"/>
<path d="M2972 1504 c-29 -20 -31 -83 -2 -109 47 -42 124 -7 122 55 -2 62 -67
92 -120 54z"/>
</g>
</svg>
